<svg xmlns="http://www.w3.org/2000/svg" width="182.145" height="188.275" viewBox="0 0 182.145 188.275">
  <g id="Group_14" data-name="Group 14" transform="translate(454 -1799.911)">
    <rect id="Rectangle_1469" data-name="Rectangle 1469" width="182" height="188" rx="4" transform="translate(-454 1800)" fill="#1d7cf8"/>
    <path id="Path_41" data-name="Path 41" d="M-272,1838.631s-1.969-.289-.39-.156c-.676-.271-8.594-3.422-16.292-6.023-8.216-2.776-15.14.758-16.66,6.179s-1.216,6.642,1.639,13.108c1.119,2.535,2.813,3.41,4.43,4.5a43.087,43.087,0,0,0,9.011,4.448c8.635,3.406,18.262,10.236,18.262,10.236" transform="translate(0 -7)" fill="none" stroke="#707070" stroke-width="0.5"/>
    <path id="Path_43" data-name="Path 43" d="M-272,1906.661s-106.081-71.032-107.1-72.441-9.358-12.988-8.57-21.328,2.653-9.58,5.346-12.578" fill="none" stroke="#707070" stroke-width="0.5"/>
    <path id="Path_44" data-name="Path 44" d="M-272,1928.388l-110.155-61.731s-22.4-16.2-28.714-32.626,2.226-33.83,2.226-33.83" fill="none" stroke="#707070" stroke-width="0.5"/>
    <path id="Path_45" data-name="Path 45" d="M-271.7,1949.615a414.679,414.679,0,0,0-49.624-23.34c-26.312-10.1-29.571-9.881-52.62-22.952a210.455,210.455,0,0,1-38.61-28.13s-8.091-7.334-16.663-25.8-20.288-49.012-20.288-49.012" transform="translate(-0.299 -0.379)" fill="none" stroke="#707070" stroke-width="0.5"/>
    <path id="Path_46" data-name="Path 46" d="M-288.671,1988s-26.849-24.38-44.3-32.506-25.493,0-25.493,0-7.65,5.288-8.105,13.1,0,19.406,0,19.406" fill="none" stroke="#707070" stroke-width="0.5"/>
    <path id="Path_47" data-name="Path 47" d="M-328.924,1987.473s-12.994-6.615-19.392-6.615-6.171,6.615-6.171,6.615" fill="none" stroke="#707070" stroke-width="0.5"/>
    <path id="Path_48" data-name="Path 48" d="M-393.125,1988s-1.451-8.308-16.729-37.739c-5.729-11.037-12.861-25.543-20.332-38.951-12.14-21.786-23.121-40.33-23.121-40.33" fill="none" stroke="#707070" stroke-width="0.5"/>
    <path id="Path_49" data-name="Path 49" d="M-415,1988s-8.545-24.232-18.076-39.049-20.048-20.218-20.048-20.218" fill="none" stroke="#707070" stroke-width="0.5"/>
    <path id="Path_50" data-name="Path 50" d="M-431.249,1988a69.3,69.3,0,0,0-7.649-19.539,40.256,40.256,0,0,0-14.424-13.68" fill="none" stroke="#707070" stroke-width="0.5"/>
    <path id="Path_51" data-name="Path 51" d="M-442.892,1987.7a47.73,47.73,0,0,0-5.185-3.091,51.11,51.11,0,0,0-5.687-2.372" fill="none" stroke="#707070" stroke-width="0.5"/>
    <path id="Path_52" data-name="Path 52" d="M-272,1886.648s-46.293-26.891-63.055-45.344-6.488-24.99-4-28.465,15.137-12.551,15.137-12.551" fill="none" stroke="#707070" stroke-width="0.5"/>
  </g>
</svg>
