<svg xmlns="http://www.w3.org/2000/svg" width="1307.057" height="468.603" viewBox="0 0 1307.057 468.603">
  <g id="Group_16" data-name="Group 16" transform="translate(3516.057 -2513.863)">
    <g id="Rectangle_1470" data-name="Rectangle 1470" transform="translate(-3516 2514)" fill="#1d7cf8" stroke="#707070" stroke-width="1">
      <rect width="1307" height="468" stroke="none"/>
      <rect x="0.5" y="0.5" width="1306" height="467" fill="none"/>
    </g>
    <path id="Path_85" data-name="Path 85" d="M-2325.729,2982s-129.238-161.185-245.142-278.117-218.473-189.612-218.473-189.612" transform="translate(39)" fill="none" stroke="#707070" stroke-width="1"/>
    <path id="Path_86" data-name="Path 86" d="M-2500.891,2982s-136.595-134.281-216.562-171.66-103.307,22.145-103.307,22.145-24.6,36.8-29.642,74.18,9.465,75.336,9.465,75.336" transform="translate(106)" fill="none" stroke="#707070" stroke-width="1"/>
    <path id="Path_87" data-name="Path 87" d="M-2657.958,2982s-34.762-21.353-57.757-22.844-34.5,22.844-34.5,22.844" transform="translate(108)" fill="none" stroke="#707070" stroke-width="1"/>
    <path id="Path_88" data-name="Path 88" d="M-2938.01,2994l-124.574-269.276L-3176.7,2529.635" transform="translate(115 -12)" fill="none" stroke="#707070" stroke-width="1"/>
    <path id="Path_89" data-name="Path 89" d="M-2908.708,2981.995s-130.944-184.324-221.409-265.043c-50.208-44.8-31.191-46-72.977-65.582s-24.733-8.733-65.675-21.726c-92-29.2-240.527-12.169-240.527-12.169" transform="translate(-6.703 0.005)" fill="none" stroke="#707070" stroke-width="1"/>
    <path id="Path_90" data-name="Path 90" d="M-3117.984,2982s-77.122-137.044-159.281-189.125-169.354-19.2-169.354-19.2l-66.042,33.031" fill="none" stroke="#707070" stroke-width="1"/>
    <path id="Path_91" data-name="Path 91" d="M-3300.75,2982s-39.5-22.027-87.437-22.027S-3492.51,2982-3492.51,2982" fill="none" stroke="#707070" stroke-width="1"/>
  </g>
</svg>
