<svg xmlns="http://www.w3.org/2000/svg" width="1362.382" height="303.95" viewBox="0 0 1362.382 303.95">
  <g id="Group_15" data-name="Group 15" transform="translate(3497.382 -1680.399)">
    <g id="Path_84" data-name="Path 84" transform="translate(-3497 1681)" fill="#1d7cf8">
      <path d="M 1361.5 302.5 L 695.8916625976562 302.5 L 0.5 302.5 L 0.5 0.5 L 702.4219970703125 0.5 L 1361.5 0.5 L 1361.5 302.5 Z" stroke="none"/>
      <path d="M 1 1 L 1 302 L 695.8916625976562 302 L 1361 302 L 1361 1 L 702.4219970703125 1 L 1 1 M 0 0 L 702.4219970703125 0 L 1362 0 L 1362 303 C 1362 303 1036.391479492188 303 695.8916625976562 303 C 355.3916625976562 303 0 303 0 303 L 0 0 Z" stroke="none" fill="#707070"/>
    </g>
    <path id="Path_53" data-name="Path 53" d="M-2177.816,1850.355l42.4,134.766" transform="translate(0 -67.99)" fill="none" stroke="#707070" stroke-width="0.5"/>
    <path id="Path_54" data-name="Path 54" d="M-2206.729,2017.443l34.113,77.326" transform="translate(0 -112.883)" fill="none" stroke="#707070" stroke-width="0.5"/>
    <path id="Path_55" data-name="Path 55" d="M-2293.652,1981.887s16.04-102.469,55.492-177.381,102.316-122.268,102.316-122.268" transform="translate(0 0)" fill="none" stroke="#707070" stroke-width="0.5"/>
    <path id="Path_56" data-name="Path 56" d="M-2224.125,1682.238s-41.541,28.26-74.829,102.656-58.323,194.93-58.323,194.93" fill="none" stroke="#707070" stroke-width="0.5"/>
    <path id="Path_57" data-name="Path 57" d="M-2312.289,1682.238s-39.525,33.89-66.387,108.287-41.059,189.3-41.059,189.3" fill="none" stroke="#707070" stroke-width="0.5"/>
    <path id="Path_58" data-name="Path 58" d="M-2534.238,1976.992c67.527,18.367,69.527,21.313,69.527,21.313" transform="translate(0 -84.65)" fill="none" stroke="#707070" stroke-width="0.5"/>
    <path id="Path_59" data-name="Path 59" d="M-2556.582,2017.443l90.293,31.6" transform="translate(-3 -100.883)" fill="none" stroke="#707070" stroke-width="0.5"/>
    <path id="Path_60" data-name="Path 60" d="M-2577.785,2065.117l78.311,31.883" transform="translate(0 -112.883)" fill="none" stroke="#707070" stroke-width="0.5"/>
    <path id="Path_61" data-name="Path 61" d="M-2694.9,2016.152s78.8-40.794,119.4-100.755,43-139.089,43-139.089" transform="translate(-6.219 -83.792)" fill="none" stroke="#707070" stroke-width="0.5"/>
    <path id="Path_62" data-name="Path 62" d="M-2734.121,1903s64.509-15.159,102.485-62.294,49.421-126.247,49.421-126.247" transform="translate(-1.234)" fill="none" stroke="#707070" stroke-width="0.5"/>
    <path id="Path_63" data-name="Path 63" d="M-2755.453,1871.91s56.082-46.03,83.242-93.359,25.4-95.957,25.4-95.957" fill="none" stroke="#707070" stroke-width="0.5"/>
    <path id="Path_64" data-name="Path 64" d="M-2789.824,1790.3s42.319-31.874,60.73-58.777,12.914-48.836,12.914-48.836" fill="none" stroke="#707070" stroke-width="0.5"/>
    <path id="Path_65" data-name="Path 65" d="M-2810.574,1721.223l31.73-39.789" fill="none" stroke="#707070" stroke-width="0.5"/>
    <path id="Path_66" data-name="Path 66" d="M-2845.035,2094.77V1956.816" transform="translate(0 -112.883)" fill="none" stroke="#707070" stroke-width="0.5"/>
    <path id="Path_67" data-name="Path 67" d="M-2904.633,2097v-69.023" transform="translate(0 -112.883)" fill="none" stroke="#707070" stroke-width="0.5"/>
    <path id="Path_68" data-name="Path 68" d="M-3030.965,2094.77l94.34-124.621" transform="translate(0 -112.883)" fill="none" stroke="#707070" stroke-width="0.5"/>
    <path id="Path_69" data-name="Path 69" d="M-3105.078,2094.77l92.754-98.8s20.845-15.61,42.105-57.16,42.938-109.039,42.938-109.039" transform="translate(0 -112.883)" fill="none" stroke="#707070" stroke-width="0.5"/>
    <path id="Path_70" data-name="Path 70" d="M-3162.359,1953.552s45.584-37.176,73.352-63.517c6.276-5.953,7.5-7.876,16.929-18.337,6.1-6.769,6.92-9.648,12.117-15.525s5.866-11.167,10.025-18.744c15.223-27.731,20.007-60.207,20.007-60.207l13.116-31.256" transform="translate(65.883 -62.588)" fill="none" stroke="#707070" stroke-width="0.5"/>
    <path id="Path_71" data-name="Path 71" d="M-3118.977,1863.094s43.649-12.652,70.436-51.4,36.71-103.587,36.71-103.587l7.686-27.163" transform="translate(-12.469 2)" fill="none" stroke="#707070" stroke-width="0.5"/>
    <path id="Path_72" data-name="Path 72" d="M-3112.426,1809.73s31.477-14.662,49.69-54.24,23.162-104.072,23.162-104.072" transform="translate(-32.133 29)" fill="none" stroke="#707070" stroke-width="0.5"/>
    <path id="Path_73" data-name="Path 73" d="M-3404.082,1682.594s-17.014,29.21-39.628,50.029-50.829,33.245-50.829,33.245" transform="translate(-2 0.09)" fill="none" stroke="#707070" stroke-width="0.5"/>
    <path id="Path_74" data-name="Path 74" d="M-3424.008,1736.49l-40.871,70.459-31.3,41" transform="translate(-1 3.291)" fill="none" stroke="#707070" stroke-width="0.5"/>
    <path id="Path_75" data-name="Path 75" d="M-3496.539,2057.18l58.906,36.8" transform="translate(0 -112.883)" fill="none" stroke="#707070" stroke-width="0.5"/>
    <path id="Path_76" data-name="Path 76" d="M-3496.539,2008.383l96.445,51.762" transform="translate(0 -112.883)" fill="none" stroke="#707070" stroke-width="0.5"/>
    <path id="Path_77" data-name="Path 77" d="M-3451.311,1970.148l61.018,34.531" transform="translate(0 -85.557)" fill="none" stroke="#707070" stroke-width="0.5"/>
    <path id="Path_78" data-name="Path 78" d="M-3382.965,1981.887l22.793-125.686,38.59-116.216,23.813-59.2" fill="none" stroke="#707070" stroke-width="0.5"/>
    <path id="Path_79" data-name="Path 79" d="M-3353.82,1981.887s11.261-69.673,28.205-118.527,16.808-31.974,35.186-77.883,38.324-105.751,38.324-105.751" transform="translate(9 1)" fill="none" stroke="#707070" stroke-width="0.5"/>
    <path id="Path_80" data-name="Path 80" d="M-3289.145,2029.443l16.055,65.646" transform="translate(46 -111.883)" fill="none" stroke="#707070" stroke-width="0.5"/>
    <path id="Path_81" data-name="Path 81" d="M-3252.105,2097c8.384-18.185,15.4-30.224,30.889-36.014s8.732-3.435,14.5-5.1c1.55-.446,2.427-1.219,10.915-1a78.51,78.51,0,0,1,24.037,4.208,71.891,71.891,0,0,1,16.885,8.023c5.9,3.641,13.508,12.5,13.508,12.5h0c.506.469-2.376-4.159,0,0s7.934,17.379,7.934,17.379" transform="translate(79 -112.883)" fill="#27b3e4"/>
    <path id="Path_82" data-name="Path 82" d="M-3131.446,2054.916l-77.519-251.936" transform="translate(1 -110.883)" fill="none" stroke="#707070" stroke-width="0.5"/>
    <path id="Path_83" data-name="Path 83" d="M-3161.062,2075.58l-74.914-153.467" transform="translate(-2 -107.883)" fill="none" stroke="#707070" stroke-width="0.5"/>
  </g>
</svg>
