<svg xmlns="http://www.w3.org/2000/svg" width="40" height="40" viewBox="0 0 40 40">
  <g id="Group_19" data-name="Group 19" transform="translate(3646 -2806)">
    <g id="Group_17" data-name="Group 17">
      <g id="Chat" transform="translate(-3646 2806)">
        <rect id="Rectangle_389" data-name="Rectangle 389" width="40" height="40" fill="none"/>
        <path id="Path_116" data-name="Path 116" d="M38.511,7.352a52.44,52.44,0,0,1,.7,7.7,43.7,43.7,0,0,1-.7,7.352,8.806,8.806,0,0,1-2.451,4.2,6.778,6.778,0,0,1-4.551,2.1,85.839,85.839,0,0,1-9.453.7l-8.4,8.052a1.286,1.286,0,0,1-1.05.35h-.7c-.7-.35-.7-.7-.7-1.4v-7l-3.5-.35a9.756,9.756,0,0,1-4.551-2.451,8.142,8.142,0,0,1-2.8-4.2A54.206,54.206,0,0,1,0,14.7,54.206,54.206,0,0,1,.35,7a6.476,6.476,0,0,1,2.8-4.2A6.778,6.778,0,0,1,7.7.7c4.2-.35,8.052-.7,11.9-.7s7.7.35,11.9.7c1.75,0,3.151,1.05,4.551,2.1C37.46,4.2,38.511,5.6,38.511,7.352Z" transform="translate(0)" fill="#fff"/>
      </g>
    </g>
  </g>
</svg>
